<svg width="24" height="25" viewBox="0 0 24 25" fill="none" xmlns="http://www.w3.org/2000/svg">
<path d="M12 14.375C13.0355 14.375 13.875 13.5355 13.875 12.5C13.875 11.4645 13.0355 10.625 12 10.625C10.9645 10.625 10.125 11.4645 10.125 12.5C10.125 13.5355 10.9645 14.375 12 14.375Z" stroke="#BFC2D9" stroke-width="2" stroke-linecap="round" stroke-linejoin="round"/>
<path d="M19.5 14.375C20.5355 14.375 21.375 13.5355 21.375 12.5C21.375 11.4645 20.5355 10.625 19.5 10.625C18.4645 10.625 17.625 11.4645 17.625 12.5C17.625 13.5355 18.4645 14.375 19.5 14.375Z" stroke="#BFC2D9" stroke-width="2" stroke-linecap="round" stroke-linejoin="round"/>
<path d="M4.5 14.375C5.53553 14.375 6.375 13.5355 6.375 12.5C6.375 11.4645 5.53553 10.625 4.5 10.625C3.46447 10.625 2.625 11.4645 2.625 12.5C2.625 13.5355 3.46447 14.375 4.5 14.375Z" stroke="#BFC2D9" stroke-width="2" stroke-linecap="round" stroke-linejoin="round"/>
</svg>
