<svg width="24" height="25" viewBox="0 0 24 25" fill="none" xmlns="http://www.w3.org/2000/svg">
<path d="M12.4132 18.3781L17.1382 21.3781C17.7476 21.7625 18.4976 21.1906 18.3195 20.4875L16.9507 15.1063C16.9137 14.9571 16.9196 14.8005 16.9677 14.6546C17.0158 14.5086 17.1042 14.3792 17.2226 14.2813L21.4601 10.7469C22.0132 10.2875 21.732 9.3594 21.0101 9.31252L15.4789 8.95627C15.3279 8.94749 15.1828 8.89494 15.0613 8.80503C14.9398 8.71513 14.847 8.59177 14.7945 8.45002L12.732 3.25627C12.6774 3.10618 12.5779 2.97653 12.4471 2.88491C12.3163 2.79329 12.1604 2.74414 12.0007 2.74414C11.841 2.74414 11.6852 2.79329 11.5544 2.88491C11.4235 2.97653 11.3241 3.10618 11.2695 3.25627L9.20698 8.45002C9.15441 8.59177 9.0617 8.71513 8.94016 8.80503C8.81862 8.89494 8.67353 8.94749 8.5226 8.95627L2.99135 9.31252C2.26948 9.3594 1.98823 10.2875 2.54135 10.7469L6.77885 14.2813C6.89729 14.3792 6.98565 14.5086 7.03375 14.6546C7.08186 14.8005 7.08774 14.9571 7.05073 15.1063L5.7851 20.0938C5.56948 20.9375 6.46948 21.6219 7.19135 21.1625L11.5882 18.3781C11.7115 18.2997 11.8546 18.2581 12.0007 18.2581C12.1468 18.2581 12.2899 18.2997 12.4132 18.3781Z" stroke="#8D93A1" stroke-width="2" stroke-linecap="round" stroke-linejoin="round"/>
</svg>
