<svg width="24" height="25" viewBox="0 0 24 25" fill="none" xmlns="http://www.w3.org/2000/svg">
<path d="M20.25 4.25V20.75" stroke="#8D93A1" stroke-width="2" stroke-linecap="round" stroke-linejoin="round"/>
<path d="M7.5 10.625H15.75C16.1642 10.625 16.5 10.2892 16.5 9.875V6.5C16.5 6.08579 16.1642 5.75 15.75 5.75H7.5C7.08579 5.75 6.75 6.08579 6.75 6.5V9.875C6.75 10.2892 7.08579 10.625 7.5 10.625Z" stroke="#8D93A1" stroke-width="2" stroke-linecap="round" stroke-linejoin="round"/>
<path d="M15.75 14.375H3.75C3.33579 14.375 3 14.7108 3 15.125V18.5C3 18.9142 3.33579 19.25 3.75 19.25H15.75C16.1642 19.25 16.5 18.9142 16.5 18.5V15.125C16.5 14.7108 16.1642 14.375 15.75 14.375Z" stroke="#8D93A1" stroke-width="2" stroke-linecap="round" stroke-linejoin="round"/>
</svg>
