<svg width="24" height="25" viewBox="0 0 24 25" fill="none" xmlns="http://www.w3.org/2000/svg">
<path d="M12 14.75C13.2426 14.75 14.25 13.7426 14.25 12.5C14.25 11.2574 13.2426 10.25 12 10.25C10.7574 10.25 9.75 11.2574 9.75 12.5C9.75 13.7426 10.7574 14.75 12 14.75Z" stroke="#8D93A1" stroke-width="2" stroke-linecap="round" stroke-linejoin="round"/>
<path d="M9 8C10.2426 8 11.25 6.99264 11.25 5.75C11.25 4.50736 10.2426 3.5 9 3.5C7.75736 3.5 6.75 4.50736 6.75 5.75C6.75 6.99264 7.75736 8 9 8Z" stroke="#8D93A1" stroke-width="2" stroke-linecap="round" stroke-linejoin="round"/>
<path d="M18.75 12.125C19.9926 12.125 21 11.1176 21 9.875C21 8.63236 19.9926 7.625 18.75 7.625C17.5074 7.625 16.5 8.63236 16.5 9.875C16.5 11.1176 17.5074 12.125 18.75 12.125Z" stroke="#8D93A1" stroke-width="2" stroke-linecap="round" stroke-linejoin="round"/>
<path d="M18.75 20.375C19.9926 20.375 21 19.3676 21 18.125C21 16.8824 19.9926 15.875 18.75 15.875C17.5074 15.875 16.5 16.8824 16.5 18.125C16.5 19.3676 17.5074 20.375 18.75 20.375Z" stroke="#8D93A1" stroke-width="2" stroke-linecap="round" stroke-linejoin="round"/>
<path d="M5.25 20.75C6.49264 20.75 7.5 19.7426 7.5 18.5C7.5 17.2574 6.49264 16.25 5.25 16.25C4.00736 16.25 3 17.2574 3 18.5C3 19.7426 4.00736 20.75 5.25 20.75Z" stroke="#8D93A1" stroke-width="2" stroke-linecap="round" stroke-linejoin="round"/>
<path d="M11.0914 10.4465L9.91016 7.80273" stroke="#8D93A1" stroke-width="2" stroke-linecap="round" stroke-linejoin="round"/>
<path d="M10.3234 13.9902L6.92969 17.009" stroke="#8D93A1" stroke-width="2" stroke-linecap="round" stroke-linejoin="round"/>
<path d="M17.0266 16.6809L13.7266 13.9434" stroke="#8D93A1" stroke-width="2" stroke-linecap="round" stroke-linejoin="round"/>
<path d="M16.6516 10.6904L14.1016 11.6842" stroke="#8D93A1" stroke-width="2" stroke-linecap="round" stroke-linejoin="round"/>
</svg>
