<svg width="24" height="25" viewBox="0 0 24 25" fill="none" xmlns="http://www.w3.org/2000/svg">
<path d="M2.25 17.7501V15.6032C2.25 10.2126 6.58125 5.76882 11.9625 5.75007C13.246 5.74514 14.5179 5.99368 15.7052 6.48146C16.8924 6.96923 17.9717 7.68663 18.881 8.59249C19.7904 9.49835 20.5119 10.5749 21.0043 11.7602C21.4966 12.9456 21.75 14.2165 21.75 15.5001V17.7501C21.75 17.949 21.671 18.1398 21.5303 18.2804C21.3897 18.4211 21.1989 18.5001 21 18.5001H3C2.80109 18.5001 2.61032 18.4211 2.46967 18.2804C2.32902 18.1398 2.25 17.949 2.25 17.7501Z" stroke="#8D93A1" stroke-width="2" stroke-linecap="round" stroke-linejoin="round"/>
<path d="M12 5.75V8.75" stroke="#8D93A1" stroke-width="2" stroke-linecap="round" stroke-linejoin="round"/>
<path d="M2.57812 12.9785L5.48438 13.7566" stroke="#8D93A1" stroke-width="2" stroke-linecap="round" stroke-linejoin="round"/>
<path d="M21.4219 12.9785L18.5156 13.7566" stroke="#8D93A1" stroke-width="2" stroke-linecap="round" stroke-linejoin="round"/>
<path d="M9.69531 18.4996L16.1078 10.1465" stroke="#8D93A1" stroke-width="2" stroke-linecap="round" stroke-linejoin="round"/>
</svg>
