<svg width="24" height="25" viewBox="0 0 24 25" fill="none" xmlns="http://www.w3.org/2000/svg">
<path d="M18.3664 10.3808L12.0008 16.7464L7.75391 12.4995L14.1195 6.1339C16.5289 3.72452 18.9383 3.75265 19.9695 3.90265C20.1287 3.92388 20.2764 3.99689 20.3899 4.1104C20.5034 4.22392 20.5764 4.37164 20.5977 4.53077C20.7477 5.56202 20.7758 7.9714 18.3664 10.3808Z" stroke="#8D93A1" stroke-width="2" stroke-linecap="round" stroke-linejoin="round"/>
<path d="M17.3063 11.4404V17.4967C17.3034 17.6945 17.2226 17.8832 17.0813 18.0217L14.0531 21.0592C13.9571 21.1551 13.8367 21.2232 13.705 21.2562C13.5733 21.2891 13.4351 21.2856 13.3052 21.2462C13.1752 21.2067 13.0585 21.1327 12.9673 21.0321C12.8761 20.9315 12.814 20.808 12.7875 20.6748L12 16.7467" stroke="#8D93A1" stroke-width="2" stroke-linecap="round" stroke-linejoin="round"/>
<path d="M13.0608 7.19336H7.00452C6.80669 7.19618 6.61799 7.27705 6.47952 7.41836L3.44202 10.4465C3.34606 10.5426 3.27798 10.6629 3.24505 10.7946C3.21212 10.9263 3.21556 11.0645 3.25502 11.1945C3.29448 11.3244 3.36847 11.4412 3.4691 11.5323C3.56973 11.6235 3.69322 11.6856 3.8264 11.7121L7.75452 12.4996" stroke="#8D93A1" stroke-width="2" stroke-linecap="round" stroke-linejoin="round"/>
<path d="M8.49375 18.5371C7.07812 20.984 3.51562 20.984 3.51562 20.984C3.51562 20.984 3.51562 17.4215 5.96251 16.0059" stroke="#8D93A1" stroke-width="2" stroke-linecap="round" stroke-linejoin="round"/>
</svg>
