<svg width="24" height="25" viewBox="0 0 24 25" fill="none" xmlns="http://www.w3.org/2000/svg">
<path d="M18.7519 4.55929V19.9999C18.7519 20.1988 18.6729 20.3896 18.5322 20.5302C18.3916 20.6709 18.2008 20.7499 18.0019 20.7499H2.56125C2.41253 20.7497 2.26724 20.7052 2.14385 20.6222C2.02046 20.5392 1.92453 20.4214 1.86826 20.2837C1.81199 20.146 1.79792 19.9948 1.82783 19.8491C1.85774 19.7034 1.93029 19.5699 2.03625 19.4655L17.4675 4.03429C17.5718 3.92833 17.7053 3.85579 17.851 3.82587C17.9967 3.79596 18.148 3.81004 18.2857 3.86631C18.4233 3.92258 18.5411 4.0185 18.6242 4.1419C18.7072 4.26529 18.7516 4.41058 18.7519 4.55929Z" stroke="#8D93A1" stroke-width="2" stroke-linecap="round" stroke-linejoin="round"/>
<path d="M15 6.5V20.75" stroke="#8D93A1" stroke-width="2" stroke-linecap="round" stroke-linejoin="round"/>
<path d="M11.25 10.25V20.75" stroke="#8D93A1" stroke-width="2" stroke-linecap="round" stroke-linejoin="round"/>
<path d="M7.5 14V20.75" stroke="#8D93A1" stroke-width="2" stroke-linecap="round" stroke-linejoin="round"/>
</svg>
